<svg width="30" height="30" viewBox="0 0 30 30" fill="none" xmlns="http://www.w3.org/2000/svg">
<path d="M14.9998 8.41675C17.3368 8.41675 18.7497 9.37917 19.5945 10.5525C20.4576 11.7513 20.7498 13.2051 20.7498 14.1667V18.5408L20.8962 18.6873L22.1267 19.9167H7.87378L9.24976 18.5408V14.1667C9.24976 11.8301 10.2124 10.4178 11.3855 9.573C12.5842 8.70994 14.0381 8.41681 14.9998 8.41675Z" stroke="#1A1A1A"/>
<path d="M15.0001 7.91659C12.9167 7.91659 8.75008 9.16658 8.75008 14.1666V18.3333L6.66675 20.4166H23.3334L21.2501 18.3333V14.1666C21.2501 12.0833 20.0001 7.91659 15.0001 7.91659ZM15.0001 7.91659V5.83325M11.8751 21.4583C11.8751 22.4999 12.5001 24.5833 15.0001 24.5833C17.5001 24.5833 18.1251 22.4999 18.1251 21.4583" stroke="#1A1A1A" stroke-width="1.8" stroke-linecap="round" stroke-linejoin="round"/>
<circle cx="22.5" cy="5.5" r="2.5" fill="#FF4343"/>
</svg>
