<svg width="12" height="13" viewBox="0 0 12 13" fill="none" xmlns="http://www.w3.org/2000/svg">
<path d="M1.22971 6.00481C1.37684 5.85766 1.57636 5.775 1.7844 5.775C1.99244 5.775 2.19196 5.85766 2.33909 6.00481L5.11331 8.78026L10.6602 3.23014C10.733 3.15721 10.8195 3.09935 10.9147 3.05987C11.0099 3.02038 11.1119 3.00004 11.215 3C11.318 2.99996 11.4201 3.02023 11.5153 3.05965C11.6105 3.09907 11.6971 3.15687 11.77 3.22975C11.8429 3.30262 11.9007 3.38915 11.9402 3.48438C11.9796 3.57962 12 3.6817 12 3.7848C12 3.88789 11.9798 3.98999 11.9404 4.08525C11.901 4.18051 11.8432 4.26708 11.7704 4.34001L5.11331 11L1.22971 7.11468C1.08263 6.96748 1 6.76787 1 6.55974C1 6.35161 1.08263 6.152 1.22971 6.00481Z" fill="#293A92"/>
</svg>
