<svg width="223" height="69" viewBox="0 0 223 69" fill="none" xmlns="http://www.w3.org/2000/svg">
<path d="M63.2968 38.2303H76.7815V34.5182H63.0695V30.3516H79.1299C81.0239 30.3516 81.5542 30.844 81.5542 32.6243V45.9953H76.7815V42.0181H63.2968V38.2303ZM57.0469 47.8135H87.8041V51.9801H80.0011V61.3036H75.0012V51.9801H69.4331V61.3036H64.4331V51.9801H57.0469V47.8135Z" fill="#272727"/>
<path d="M189.175 27.8896V44.0258C189.175 46.5258 190.182 47.6621 192 47.8136V51.9803H191.827C187.319 51.9803 184.705 49.5561 184.44 45.2H176.675V41.1849H184.402V38.5335H176.675V34.5184H184.402V27.8896H189.175ZM178.948 47.7V51.8287C174.706 51.8287 170.956 49.4803 169.365 46.1091C167.85 49.6697 163.759 51.9803 159.289 51.9803V47.8136C163.607 47.8136 166.903 44.3288 166.903 39.1774V34.4805H171.675V39.1774C171.675 44.2531 174.819 47.7 178.948 47.7ZM172.395 54.3905H177.168V64.4052H192V68.5719H174.857C173.38 68.5719 172.395 67.8143 172.395 66.2613V54.3905Z" fill="#272727"/>
<path d="M151.823 43.9879V27.8896H156.596V43.1167C156.596 45.9955 157.581 47.6621 159.361 47.8136V51.9803H159.247C154.55 51.9803 151.823 49.0258 151.823 43.9879ZM138.225 51.9803H126.331V47.8136H138.225C140.308 47.8136 141.899 46.147 141.899 43.9122C141.899 41.6395 140.308 39.9728 138.225 39.9728C136.142 39.9728 134.589 41.6395 134.589 43.9122C134.589 44.6697 134.816 45.5788 135.346 46.3364H130.573C130.081 45.541 129.892 44.594 129.892 43.7228C129.892 39.1774 133.452 35.8062 138.225 35.8062C142.998 35.8062 146.596 39.1774 146.596 43.7228C146.596 48.4576 142.998 51.9803 138.225 51.9803Z" fill="#272727"/>
<path d="M124.113 27.8896V44.0258C124.113 46.5258 124.908 47.6621 126.424 47.8136V51.9803H126.31C121.84 51.9803 119.34 49.253 119.34 44.3667V27.8896H124.113ZM106.727 37.0941H111.045V28.1169H115.818V51.9803H111.045V41.2607H106.727V37.0941ZM96.5376 44.4425V46.3743C96.5376 47.3212 96.9542 47.8136 97.7497 47.8136H106.575V51.9803H87.7119V47.8136H92.1437C91.8785 47.5106 91.7649 46.9803 91.7649 46.1849V40.6925H100.439V37.738H91.7649V33.5714H102.712C103.848 33.5714 105.212 34.0638 105.212 35.7305V44.4425H96.5376Z" fill="#49579F"/>
<path d="M116.526 23.373H94.8066V19.3305H116.489C118.106 19.3305 119.025 18.4117 119.025 16.5375V0H123.655V15.8025C123.655 18.3015 124.501 19.3305 126.118 19.3305V23.373H125.934C123.766 23.373 122.075 22.638 121.23 21.3517C120.458 22.638 118.768 23.373 116.526 23.373ZM106.787 17.64C102.12 17.64 98.7756 14.4795 98.7756 10.1797C98.7756 5.80649 102.046 2.75625 106.787 2.75625H114.394V6.79874H106.787C104.839 6.79874 103.406 8.23199 103.406 10.1797C103.406 12.1642 104.839 13.5975 106.787 13.5975C108.735 13.5975 110.168 12.1642 110.168 10.1797C110.168 9.48149 109.984 8.59949 109.801 8.23199H114.431C114.615 8.59949 114.799 9.48149 114.799 10.1797C114.799 14.4795 111.454 17.64 106.787 17.64Z" fill="#272727"/>
<path d="M92.4327 0V15.8025C92.4327 18.3015 93.278 19.3305 94.895 19.3305V23.373H94.7112C92.543 23.373 90.8525 22.638 90.0072 21.3517C89.2355 22.638 87.545 23.373 85.3032 23.373H78.4677V26.7614H73.8372V23.373H63.584V19.3305H85.2665C86.8835 19.3305 87.8022 18.4117 87.8022 16.5375V0H92.4327ZM76.0055 12.4582C74.609 15.1042 70.8605 16.9417 66.8547 16.9417V12.8992C70.787 12.8992 73.6902 10.3635 73.6902 6.98249V6.76199H67.2222V2.7195H84.6417V6.76199H78.3207V6.98249C78.3207 10.29 81.1872 12.7522 85.0092 12.7522V16.7947C81.0402 16.7947 77.402 15.0307 76.0055 12.4582Z" fill="#272727"/>
<path d="M64.9029 7.34999V11.3925H59.5374V15.6555C59.5374 18.081 60.4561 19.1835 62.7714 19.3305H63.6534V23.373H62.6611C57.4794 23.373 54.9069 20.727 54.9069 15.9862V0H59.5374V7.34999H64.9029ZM41.3462 19.3305H52.7754V23.373H31.6074V19.3305H35.9072C35.6499 19.0365 35.5397 18.522 35.5397 17.7502V12.3112H45.6092V9.37124H35.5397V5.32874H47.8142C48.9167 5.32874 50.2397 5.80649 50.2397 7.42349V15.9495H40.1702V17.934C40.1702 18.8527 40.5744 19.3305 41.3462 19.3305ZM40.3922 38.4037V26.607H57.0032V30.723H45.0227V36.6397H52.3727V32.1562H57.0032V40.6822H42.781C41.3845 40.6822 40.3922 39.8737 40.3922 38.4037Z" fill="#272727"/>
<path d="M32.9256 7.34999V11.3925H27.5601V15.6555C27.5601 18.081 28.4789 19.1835 30.7941 19.3305H31.6761V23.373H30.6839C25.5021 23.373 22.9296 20.727 22.9296 15.9862V0H27.5601V7.34999H32.9256ZM8.1929 11.5762V17.5665C8.1929 18.7425 8.7074 19.3305 9.6629 19.3305H20.7981V23.373H0V19.3305H4.11366C3.74616 18.9997 3.56241 18.375 3.56241 17.493V7.53374H18.2991V11.5762H8.1929Z" fill="#272727"/>
<path fill-rule="evenodd" clip-rule="evenodd" d="M204.77 28.0003C204.554 28.0055 204.349 28.0951 204.199 28.2498C204.048 28.4045 203.965 28.6121 203.966 28.8279V38.3744C203.334 38.01 202.601 37.8641 201.878 37.9592C201.156 38.0542 200.485 38.3851 199.97 38.9003C199.454 39.4156 199.124 40.0864 199.028 40.8089C198.933 41.5314 199.079 42.2651 199.443 42.8962C199.808 43.5273 200.37 44.0206 201.043 44.2996C201.716 44.5785 202.463 44.6276 203.167 44.4391C203.87 44.2506 204.493 43.8351 204.936 43.2571C205.38 42.679 205.621 41.9707 205.621 41.242V33.1149L209.623 33.782C209.741 33.8017 209.863 33.7953 209.979 33.7634C210.094 33.7315 210.202 33.6747 210.294 33.597C210.385 33.5194 210.459 33.4227 210.509 33.3137C210.56 33.2047 210.586 33.0861 210.586 32.9659V29.6555C210.586 29.4596 210.517 29.2701 210.39 29.1207C210.263 28.9712 210.088 28.8716 209.894 28.8395L204.945 28.0143C204.887 28.0035 204.828 27.9988 204.77 28.0003Z" fill="#C8CDE2"/>
<path fill-rule="evenodd" clip-rule="evenodd" d="M213.864 28.8275C213.556 28.8348 213.263 28.9602 213.048 29.1769C212.833 29.3935 212.713 29.6841 212.715 29.9862V43.3513C211.813 42.8412 210.765 42.6368 209.733 42.77C208.701 42.9031 207.743 43.3662 207.006 44.0876C206.27 44.8089 205.798 45.7482 205.662 46.7596C205.526 47.7711 205.734 48.7982 206.254 49.6818C206.775 50.5654 207.578 51.256 208.54 51.6465C209.502 52.0371 210.568 52.1057 211.573 51.8418C212.579 51.578 213.468 50.9963 214.101 50.187C214.735 49.3778 215.079 48.3862 215.079 47.366V35.988L220.797 36.9219C220.966 36.9495 221.139 36.9406 221.305 36.8959C221.47 36.8512 221.624 36.7717 221.755 36.663C221.886 36.5543 221.991 36.419 222.063 36.2664C222.135 36.1138 222.173 35.9476 222.173 35.7795V31.1448C222.173 30.8706 222.073 30.6053 221.892 30.3961C221.711 30.1869 221.461 30.0474 221.184 30.0024L214.113 28.8472C214.031 28.832 213.947 28.8254 213.864 28.8275Z" fill="#49579F"/>
</svg>
