<svg width="30" height="30" viewBox="0 0 30 30" fill="none" xmlns="http://www.w3.org/2000/svg">
<path d="M6 10.7826C6 10.575 6.0862 10.376 6.23964 10.2292C6.39308 10.0825 6.60119 10 6.81818 10H23.1818C23.3988 10 23.6069 10.0825 23.7604 10.2292C23.9138 10.376 24 10.575 24 10.7826C24 10.9902 23.9138 11.1892 23.7604 11.336C23.6069 11.4828 23.3988 11.5652 23.1818 11.5652H6.81818C6.60119 11.5652 6.39308 11.4828 6.23964 11.336C6.0862 11.1892 6 10.9902 6 10.7826ZM8.72727 16C8.72727 15.7924 8.81347 15.5934 8.96691 15.4466C9.12035 15.2998 9.32846 15.2174 9.54545 15.2174H20.4545C20.6715 15.2174 20.8796 15.2998 21.0331 15.4466C21.1865 15.5934 21.2727 15.7924 21.2727 16C21.2727 16.2076 21.1865 16.4066 21.0331 16.5534C20.8796 16.7002 20.6715 16.7826 20.4545 16.7826H9.54545C9.32846 16.7826 9.12035 16.7002 8.96691 16.5534C8.81347 16.4066 8.72727 16.2076 8.72727 16ZM12 21.2174C12 21.0098 12.0862 20.8108 12.2396 20.664C12.3931 20.5172 12.6012 20.4348 12.8182 20.4348H17.1818C17.3988 20.4348 17.6069 20.5172 17.7604 20.664C17.9138 20.8108 18 21.0098 18 21.2174C18 21.425 17.9138 21.624 17.7604 21.7708C17.6069 21.9175 17.3988 22 17.1818 22H12.8182C12.6012 22 12.3931 21.9175 12.2396 21.7708C12.0862 21.624 12 21.425 12 21.2174Z" fill="#1A1A1A"/>
<circle cx="25" cy="5" r="3" fill="#293A92"/>
</svg>
