<svg width="185" height="69" viewBox="0 0 185 69" fill="none" xmlns="http://www.w3.org/2000/svg">
<path d="M128.645 34.8036C127.683 34.8036 127.025 34.6263 126.67 34.2718C126.316 33.9173 126.138 33.2842 126.138 32.3726V24.5099H138.749V22.0789H126.138V17.9766H141.028C142.016 17.9766 142.674 18.1538 143.003 18.5083C143.358 18.8375 143.535 19.4706 143.535 20.4076V28.0804H130.924V30.6253H143.915V34.8036H128.645ZM150.296 42.0966H137.23V45.4012H144.561V49.5795H129.937V54.8213H139.775V51.0609H144.561V58.9996H127.772C126.024 58.9996 125.151 58.2146 125.151 56.6445V45.4012H132.444V42.0966H119.453V37.9183H150.296V42.0966Z" fill="#272727"/>
<path d="M111.205 28.3746V24.7281H97.8349V20.5498H113.56C114.523 20.5498 115.168 20.7144 115.498 21.0436C115.827 21.3475 115.991 21.9426 115.991 22.8289V36.1613H111.205V32.173H98.0628V28.3746H111.205ZM91.6055 42.1628V37.9846H122.449V42.1628H91.6055Z" fill="#49579F"/>
<path d="M82.9131 37.9846H95.9038V42.1628H65.0605V37.9846H78.1271V33.5404H74.2527C73.3158 33.5404 72.6701 33.3758 72.3155 33.0466C71.9863 32.7174 71.8217 32.097 71.8217 31.1854V15.8018H89.3705V19.9041H76.6078V22.7529H89.0666V26.3234H76.6078V29.3621H89.4464V33.5404H82.9131V37.9846Z" fill="#49579F"/>
<path d="M53.7899 35.488C52.1946 35.488 50.7638 35.1588 49.4977 34.5004C48.2315 33.8167 47.2313 32.8924 46.4969 31.7276C45.7879 30.5627 45.4334 29.2459 45.4334 27.7772C45.4334 26.2832 45.7879 24.9537 46.4969 23.7889C47.206 22.5987 48.1935 21.6871 49.4597 21.054C50.7258 20.3956 52.1692 20.0664 53.7899 20.0664H61.6147V24.2447H53.7899C52.777 24.2447 51.9287 24.5865 51.2449 25.2702C50.5612 25.9286 50.2194 26.7643 50.2194 27.7772C50.2194 28.7901 50.5612 29.6384 51.2449 30.3222C51.9287 30.9805 52.777 31.3097 53.7899 31.3097C54.8028 31.3097 55.6511 30.9805 56.3348 30.3222C57.0186 29.6384 57.3604 28.7901 57.3604 27.7772C57.3604 27.0175 57.2085 26.3338 56.9046 25.7261H61.6906C61.9945 26.3338 62.1464 27.0175 62.1464 27.7772C62.1464 29.2459 61.7792 30.5627 61.0449 31.7276C60.3358 32.8924 59.3483 33.8167 58.0821 34.5004C56.816 35.1588 55.3852 35.488 53.7899 35.488ZM39.5078 37.957H68.072V42.1353H61.3867V51.1375H56.3728V42.1353H50.7891V51.1375H45.7752V42.1353H39.5078V37.957Z" fill="#272727"/>
<path d="M39.5533 29.7517H34.0076V34.1579C34.0076 35.424 34.2608 36.3609 34.7672 36.9687C35.299 37.5511 36.16 37.8803 37.3502 37.9563H40.4373V42.1345H37.2362C34.5773 42.1345 32.5768 41.4888 31.2347 40.1974C29.8926 38.8806 29.2215 36.9813 29.2215 34.4997V17.9766H34.0076V25.5734H39.5533V29.7517ZM18.9658 31.385C18.9658 32.5752 19.2823 33.6641 19.9154 34.6516C20.5738 35.6139 21.4601 36.3736 22.5743 36.9307C23.6885 37.4625 24.9293 37.7284 26.2968 37.7284V41.9066C24.119 41.9066 22.1691 41.4888 20.4472 40.6532C18.7252 39.8175 17.4717 38.6653 16.6867 37.1966C15.9271 38.6653 14.6229 39.8555 12.7744 40.7671C10.9258 41.6787 8.84932 42.1345 6.54495 42.1345H4V37.9563H6.46898C7.96302 37.9563 9.29247 37.6777 10.4573 37.1206C11.6222 36.5382 12.5338 35.7532 13.1922 34.7656C13.8506 33.7527 14.1798 32.6258 14.1798 31.385V29.9036H8.06432V25.7253H25.2332V29.9036H18.9658V31.385Z" fill="#272727"/>
<path d="M159.088 24.2378V18.2432H156.84C156.244 18.2432 155.672 18.48 155.25 18.9016C154.829 19.3232 154.592 19.8949 154.592 20.4912V33.9791C154.593 34.1183 154.633 34.2544 154.707 34.3722C154.781 34.4899 154.886 34.5848 155.011 34.646C155.132 34.7008 155.265 34.7227 155.396 34.7095C155.528 34.6963 155.654 34.6486 155.761 34.5711L159.62 31.7311H169.691C169.975 31.7395 170.257 31.6895 170.521 31.5842C170.785 31.4789 171.025 31.3205 171.225 31.1189C171.425 30.9173 171.582 30.6768 171.685 30.4121C171.789 30.1475 171.837 29.8645 171.826 29.5805V28.7338H163.584C162.391 28.7338 161.248 28.2601 160.405 27.4169C159.561 26.5738 159.088 25.4302 159.088 24.2378Z" fill="#C8CDE2"/>
<path d="M176.321 12.998H163.582C162.986 12.998 162.414 13.2349 161.992 13.6565C161.571 14.078 161.334 14.6498 161.334 15.246V24.238C161.334 24.8342 161.571 25.406 161.992 25.8276C162.414 26.2491 162.986 26.486 163.582 26.486H173.735L177.317 29.266C177.424 29.3447 177.549 29.3938 177.681 29.4083C177.812 29.4228 177.945 29.4021 178.067 29.3484C178.194 29.2877 178.302 29.1922 178.377 29.0728C178.453 28.9535 178.493 28.8153 178.494 28.674V15.246C178.494 14.6626 178.267 14.1019 177.862 13.6824C177.456 13.2629 176.904 13.0175 176.321 12.998Z" fill="#49579F"/>
</svg>
