<svg width="30" height="30" viewBox="0 0 30 30" fill="none" xmlns="http://www.w3.org/2000/svg">
<path d="M15 10.625C15 10.625 15 10.625 14.3244 9.75C13.5422 8.735 12.3867 8 11 8C8.78667 8 7 9.75875 7 11.9375C7 12.7513 7.24889 13.5038 7.67556 14.125C8.39556 15.1838 15 22 15 22M15 10.625C15 10.625 15 10.625 15.6756 9.75C16.4578 8.735 17.6133 8 19 8C21.2133 8 23 9.75875 23 11.9375C23 12.7513 22.7511 13.5038 22.3244 14.125C21.6044 15.1838 15 22 15 22" stroke="#1A1A1A" stroke-width="1.8" stroke-linecap="round" stroke-linejoin="round"/>
</svg>
