<svg width="24" height="24" viewBox="0 0 24 24" fill="none" xmlns="http://www.w3.org/2000/svg">
<path d="M18.2222 4H5.77778C4.79594 4 4 4.79594 4 5.77778V18.2222C4 19.2041 4.79594 20 5.77778 20H18.2222C19.2041 20 20 19.2041 20 18.2222V5.77778C20 4.79594 19.2041 4 18.2222 4Z" stroke="#4C4C4C" stroke-width="1.5" stroke-linecap="round" stroke-linejoin="round"/>
<path d="M9.33344 11.1112C10.3153 11.1112 11.1112 10.3153 11.1112 9.33344C11.1112 8.3516 10.3153 7.55566 9.33344 7.55566C8.3516 7.55566 7.55566 8.3516 7.55566 9.33344C7.55566 10.3153 8.3516 11.1112 9.33344 11.1112Z" stroke="#4C4C4C" stroke-width="1.5" stroke-linecap="round" stroke-linejoin="round"/>
<path d="M19.9998 14.6665L17.2567 11.9233C16.9233 11.5901 16.4712 11.4028 15.9998 11.4028C15.5284 11.4028 15.0763 11.5901 14.7429 11.9233L6.6665 19.9998" stroke="#4C4C4C" stroke-width="1.5" stroke-linecap="round" stroke-linejoin="round"/>
</svg>
