<svg width="106" height="24" viewBox="0 0 106 24" fill="none" xmlns="http://www.w3.org/2000/svg">
<path d="M106 10.4436V13.2216H105.33C104.792 13.2216 104.293 13.1362 103.833 12.9654C103.386 12.7816 103.045 12.5189 102.808 12.1774C102.322 12.8735 101.449 13.2216 100.188 13.2216H96.7797V18.0878H93.5093V13.2216H88.4263V10.4436H100.07C100.464 10.4436 100.759 10.332 100.956 10.1087C101.167 9.87229 101.272 9.5308 101.272 9.08423V0.553467H104.562V8.59169C104.562 9.22214 104.673 9.68184 104.897 9.9708C105.12 10.2598 105.481 10.4174 105.98 10.4436H106ZM95.1445 7.4096C94.7111 8.00065 94.0018 8.49318 93.0167 8.88722C92.0448 9.28125 91.0072 9.47826 89.9039 9.47826V6.70035C90.8496 6.70035 91.6442 6.50333 92.2878 6.1093C92.9314 5.71527 93.3188 5.18989 93.4502 4.53318H90.1009V1.75526H100.07V4.53318H96.8191C96.9505 5.18989 97.3248 5.71527 97.9421 6.1093C98.5726 6.50333 99.354 6.70035 100.287 6.70035V9.43886C99.1702 9.43886 98.126 9.24841 97.154 8.86751C96.1952 8.48662 95.5254 8.00065 95.1445 7.4096Z" fill="#3F3F3F"/>
<path d="M88.9498 7.05497H86.034V8.17796C86.034 8.97916 86.1719 9.55707 86.4477 9.9117C86.7236 10.2663 87.1767 10.4436 87.8072 10.4436H88.4573V13.2216H87.6298C86.08 13.2216 84.8782 12.8604 84.0245 12.138C83.1839 11.4024 82.7636 10.2795 82.7636 8.76901V0.553467H86.034V4.25736H88.9498V7.05497ZM82.0543 10.4436V13.2216H70.6865V10.4436H72.7355C72.6173 10.3123 72.5582 10.1153 72.5582 9.85259V6.66094H77.5624V5.32124H72.5582V2.74034H79.0991C79.5456 2.74034 79.9331 2.86511 80.2615 3.11467C80.5898 3.35108 80.754 3.68601 80.754 4.11944V8.98572H75.7498V9.75408C75.7498 9.9905 75.7958 10.1678 75.8877 10.286C75.9928 10.3911 76.157 10.4436 76.3803 10.4436H82.0543ZM76.5182 14.6401H86.034V17.418H79.7098V19.9595H82.8424V18.1075H86.034V22.7374H78.1731C77.7003 22.7374 77.3062 22.5929 76.991 22.304C76.6758 22.0281 76.5182 21.6604 76.5182 21.2007V14.6401Z" fill="#293A92"/>
<path d="M71.2116 7.05497H68.2957V8.17796C68.2957 8.97916 68.4336 9.55707 68.7095 9.9117C68.9853 10.2663 69.4384 10.4436 70.0689 10.4436H70.719V13.2216H69.8916C68.3417 13.2216 67.1399 12.8604 66.2862 12.138C65.4456 11.4024 65.0253 10.2795 65.0253 8.76901V0.553467H68.2957V4.25736H71.2116V7.05497ZM58.0509 9.65558C58.0509 9.9314 58.1035 10.135 58.2085 10.2663C58.3268 10.3845 58.5106 10.4436 58.7602 10.4436H64.316V13.2216H52.9482V10.4436H54.9775C54.925 10.3648 54.879 10.2598 54.8396 10.1284C54.8002 9.99707 54.7805 9.87229 54.7805 9.75408V4.27706H62.9763V7.05497H58.0509V9.65558Z" fill="#3F3F3F"/>
<path d="M48.3241 0.553467H51.5946V7.48841C51.5946 9.28781 51.9886 10.2729 52.7767 10.4436H53.0328V13.2216H52.7767C51.345 13.2216 50.2417 12.7947 49.4668 11.941C48.705 11.0872 48.3241 9.81319 48.3241 8.11886V0.553467ZM36.2471 10.4436C37.0089 10.4436 37.6919 10.2532 38.296 9.87229C38.9133 9.4914 39.3928 8.96602 39.7342 8.29617C40.0757 7.61318 40.2465 6.84482 40.2465 5.99109V3.80422H43.5563V5.99109C43.5563 6.84482 43.7337 7.60662 44.0883 8.27647C44.456 8.93319 44.9617 9.45199 45.6053 9.83289C46.2489 10.2007 46.9778 10.3845 47.7922 10.3845V13.1427C46.5444 13.1427 45.3755 12.8866 44.2853 12.3744C43.2083 11.8621 42.4202 11.1923 41.9211 10.3648C41.4483 11.2186 40.6865 11.9081 39.6357 12.4335C38.585 12.9589 37.4554 13.2216 36.2471 13.2216V10.4436ZM48.3438 21.8114V17.3195H42.1378V14.5416H49.9002C50.4125 14.5416 50.8196 14.6795 51.1217 14.9553C51.437 15.2311 51.5946 15.5989 51.5946 16.0586V21.8114H48.3438Z" fill="#3F3F3F"/>
<path d="M36.292 10.4436V13.2216H36.0949C34.729 13.2216 33.6848 12.8735 32.9624 12.1774C32.24 11.4813 31.8788 10.4108 31.8788 8.96602V7.31109H30.3618V13.2216H27.2687V0.671677H30.3618V4.51348H31.8788V0.553467H35.0114V8.37498C35.0114 9.12363 35.1033 9.65558 35.2872 9.9708C35.4711 10.286 35.7994 10.4436 36.2723 10.4436H36.292ZM21.24 9.75408C21.24 9.9905 21.286 10.1678 21.3779 10.286C21.483 10.3911 21.6471 10.4436 21.8704 10.4436H26.4412V13.2216H16.354V10.4436H18.2256C18.1074 10.2992 18.0483 10.1021 18.0483 9.85259V6.83826H22.5009V5.67587H18.0483V3.03586H24.0376C24.471 3.03586 24.8388 3.1672 25.1409 3.42989C25.4561 3.69258 25.6137 4.06034 25.6137 4.53318V9.16304H21.24V9.75408Z" fill="#3F3F3F"/>
<path d="M10.0675 5.99084V4.71024H2.95523V2.05054H11.683C12.1952 2.05054 12.5958 2.18845 12.8848 2.46427C13.1869 2.74009 13.3379 3.10129 13.3379 3.54785V9.69473H10.0675V8.47324H3.07344V5.99084H10.0675ZM0 13.2213V10.4434H16.3917V13.2213H0ZM5.96956 19.8804V20.9443H13.8699V23.4464H4.41314C3.9009 23.4464 3.48717 23.3151 3.17195 23.0524C2.85672 22.8028 2.69911 22.4679 2.69911 22.0476V17.7527H10.3039V16.7282H2.69911V14.3049H11.9391C12.412 14.3049 12.7994 14.4428 13.1015 14.7186C13.4167 14.9813 13.5744 15.3162 13.5744 15.7234V19.8804H5.96956Z" fill="#3F3F3F"/>
<path d="M60.992 17.2489C60.822 17.2489 60.704 17.2182 60.6379 17.1568C60.5718 17.0955 60.5388 16.9798 60.5388 16.8099V14.8838H61.431V16.47H63.9165V17.2489H60.992ZM59.335 18.6085V17.8296H65.0849V18.6085H59.335ZM60.8291 21.4409C60.678 21.4409 60.56 21.4032 60.475 21.3276C60.3948 21.2568 60.3546 21.1483 60.3546 21.0019V19.2175H61.2469V20.662H63.9802V21.4409H60.8291Z" fill="#293A92"/>
<path d="M56.1366 17.2348C55.9666 17.2348 55.8486 17.2041 55.7825 17.1427C55.7164 17.0813 55.6834 16.9657 55.6834 16.7957V14.7139H59.0682V15.4928H56.5756V16.4558H59.0682V17.2348H56.1366ZM49.8691 18.6085V17.8296H60.2366V18.6085H49.8691ZM56.0375 21.8163C55.7212 21.8163 55.563 21.6699 55.563 21.3772V19.2033H59.1248V19.9822H56.4552V21.0373H59.1532V21.8163H56.0375Z" fill="#293A92"/>
</svg>
