<svg width="182" height="73" viewBox="0 0 182 73" fill="none" xmlns="http://www.w3.org/2000/svg">
<path d="M132.622 0V16.6114C132.622 20.185 133.597 22.3548 135.469 22.5108V26.8001H135.352C131.569 26.8001 129.074 23.1234 128.138 20.0818H120.612V15.7925H127.709V12.2441H120.612V7.95474H127.709V0H132.622ZM113.788 7.52581H118.701V24.8001H97.9565V20.5108H102.714C102.324 20.1598 102.129 19.4969 102.129 18.5611V7.52581H107.042V11.5812H112.345V15.8705H107.042V18.6391C107.042 19.8869 107.588 20.5108 108.602 20.5108H113.788V7.52581Z" fill="#272727"/>
<path d="M96.7005 7.79877V12.0881H91.0074V16.6114C91.0074 19.185 91.9822 20.3548 94.4389 20.5108H98.3612V24.8001H94.3219C88.8237 24.8001 86.0942 21.9925 86.0942 16.9623V0H91.0074V7.79877H96.7005ZM76.2287 12.2441H65.5054V7.95474H81.142V12.907C81.142 20.4328 76.6577 24.8001 66.2073 24.8001H61.3721V20.5108H66.2073C73.4992 20.5108 76.2287 17.8202 76.2287 13.2579V12.2441Z" fill="#272727"/>
<path d="M60.0654 17.3133H55.1522V8.57863H41.5824V4.28931H57.5698C59.4415 4.28931 60.0654 4.83522 60.0654 6.70692V17.3133ZM50.239 13.0239V20.5107H66.7724V24.8001H35.1094V20.5107H45.3258V13.0239H50.239ZM41.1534 27.8416H57.8038C59.4415 27.8416 60.4164 28.5825 60.4164 30.2592V40.7876H55.5032V32.1309H41.1534V27.8416Z" fill="#272727"/>
<path d="M36.4982 7.79877V12.0881H30.8051V16.6114C30.8051 19.185 31.78 20.3548 34.2366 20.5108H35.1725V24.8001H34.1196C28.6215 24.8001 25.8919 21.9925 25.8919 16.9623V0H30.8051V7.79877H36.4982ZM22.8894 20.2768V24.5661C18.4831 24.5661 14.6617 22.7724 13.0239 19.7309C11.4642 22.7334 7.36984 24.8001 2.61259 24.8001H0V20.5108H2.5346C7.21386 20.5108 10.4504 17.6252 10.4504 13.7648V12.2441H4.17234V7.95474H21.7976V12.2441H15.3636V13.7648C15.3636 17.5082 18.6391 20.2768 22.8894 20.2768ZM12.907 27.2567H27.6856C29.2844 27.2567 30.2592 28.0756 30.2592 29.6353V41.5674H25.346V31.546H12.907V27.2567Z" fill="#272727"/>
<path d="M147.53 47.6478H131.854C129.866 47.6478 129.281 47.0239 129.281 45.1522V37.0805H142.227V34.5849H129.281V30.3735H144.566C146.594 30.3735 147.14 30.9584 147.14 32.8691V40.7459H134.194V43.3585H147.53V47.6478ZM154.081 50.8453V55.1346H140.667V58.5271H148.193V62.8164H133.18V68.1976H143.28V64.3372H148.193V72.4869H130.958C129.242 72.4869 128.267 71.746 128.267 70.0693V58.5271H135.754V55.1346H122.418V50.8453H154.081Z" fill="#49579F"/>
<path d="M147.53 47.6478H131.854C129.866 47.6478 129.281 47.0239 129.281 45.1522V37.0805H142.227V34.5849H129.281V30.3735H144.566C146.594 30.3735 147.14 30.9584 147.14 32.8691V40.7459H134.194V43.3585H147.53V47.6478Z" fill="#272727"/>
<path d="M102.257 40.98H115.749V37.2366H102.023V32.9473H118.166C120.116 32.9473 120.662 33.4542 120.662 35.2869V48.9737H115.749V44.8794H102.257V40.98ZM95.6279 55.1348V50.8454H127.291V55.1348H95.6279Z" fill="#49579F"/>
<path d="M85.0751 46.2829V50.8452H98.411V55.1345H66.748V50.8452H80.1619V46.2829H76.1846C74.2349 46.2829 73.689 45.698 73.689 43.8653V28.0728H91.7041V32.2841H78.6022V35.2086H91.3922V38.8741H78.6022V41.9936H91.7821V46.2829H85.0751Z" fill="#49579F"/>
<path d="M177.349 29.2676C178.582 29.2676 179.765 29.7576 180.638 30.6298C181.51 31.5021 182 32.6851 182 33.9186V43.2207C182 44.4542 181.51 45.6372 180.638 46.5095C179.765 47.3817 178.582 47.8717 177.349 47.8717H171.856L166.319 51.1937C166.152 51.2938 165.963 51.3505 165.769 51.3585C165.574 51.3665 165.381 51.3257 165.207 51.2398C165.032 51.1538 164.882 51.0255 164.77 50.8665C164.658 50.7075 164.588 50.523 164.565 50.3298L164.558 50.1973V47.8717H163.396C162.202 47.8717 161.055 47.4131 160.19 46.5907C159.326 45.7683 158.81 44.645 158.75 43.4532L158.745 43.2207V33.9186C158.745 32.6851 159.235 31.5021 160.107 30.6298C160.979 29.7576 162.162 29.2676 163.396 29.2676H177.349ZM172.698 39.7324H165.721C165.413 39.7324 165.117 39.8549 164.899 40.073C164.681 40.291 164.558 40.5868 164.558 40.8952C164.558 41.2036 164.681 41.4993 164.899 41.7174C165.117 41.9354 165.413 42.0579 165.721 42.0579H172.698C173.006 42.0579 173.302 41.9354 173.52 41.7174C173.738 41.4993 173.861 41.2036 173.861 40.8952C173.861 40.5868 173.738 40.291 173.52 40.073C173.302 39.8549 173.006 39.7324 172.698 39.7324ZM175.023 35.0814H165.721C165.413 35.0814 165.117 35.2039 164.899 35.4219C164.681 35.64 164.558 35.9358 164.558 36.2441C164.558 36.5525 164.681 36.8483 164.899 37.0663C165.117 37.2844 165.413 37.4069 165.721 37.4069H175.023C175.332 37.4069 175.627 37.2844 175.845 37.0663C176.064 36.8483 176.186 36.5525 176.186 36.2441C176.186 35.9358 176.064 35.64 175.845 35.4219C175.627 35.2039 175.332 35.0814 175.023 35.0814Z" fill="#49579F"/>
<path d="M172.698 39.7329C173.007 39.733 173.303 39.8548 173.521 40.0728C173.738 40.2908 173.86 40.5867 173.86 40.895C173.86 41.2033 173.738 41.4992 173.521 41.7173C173.303 41.9353 173.007 42.058 172.698 42.0581H165.722C165.413 42.0581 165.117 41.9353 164.899 41.7173C164.681 41.4992 164.559 41.2034 164.559 40.895C164.559 40.5867 164.681 40.2908 164.899 40.0728C165.117 39.8548 165.413 39.7329 165.722 39.7329H172.698ZM175.023 35.0815C175.332 35.0815 175.628 35.2043 175.846 35.4224C176.064 35.6404 176.187 35.9364 176.187 36.2446C176.186 36.5527 176.064 36.848 175.846 37.0659C175.628 37.284 175.332 37.4067 175.023 37.4067H165.722C165.413 37.4067 165.117 37.284 164.899 37.0659C164.682 36.848 164.559 36.5528 164.559 36.2446C164.559 35.9363 164.681 35.6404 164.899 35.4224C165.117 35.2043 165.413 35.0815 165.722 35.0815H175.023Z" fill="#C8CDE2"/>
</svg>
