<svg width="36" height="36" viewBox="0 0 36 36" fill="none" xmlns="http://www.w3.org/2000/svg">
<rect x="9" y="9" width="19" height="15" fill="#C8CDE2"/>
<path d="M27 4.5C28.5913 4.5 30.1174 5.13214 31.2426 6.25736C32.3679 7.38258 33 8.9087 33 10.5V22.5C33 24.0913 32.3679 25.6174 31.2426 26.7426C30.1174 27.8679 28.5913 28.5 27 28.5H19.914L12.771 32.7855C12.5559 32.9146 12.3118 32.9877 12.0612 32.998C11.8105 33.0084 11.5612 32.9558 11.3362 32.8449C11.1111 32.734 10.9175 32.5684 10.773 32.3634C10.6285 32.1583 10.5377 31.9202 10.509 31.671L10.5 31.5V28.5H9C7.46064 28.5 5.98016 27.9083 4.86478 26.8474C3.74941 25.7865 3.08447 24.3374 3.0075 22.8L3 22.5V10.5C3 8.9087 3.63214 7.38258 4.75736 6.25736C5.88258 5.13214 7.4087 4.5 9 4.5H27ZM21 18H12C11.6022 18 11.2206 18.158 10.9393 18.4393C10.658 18.7206 10.5 19.1022 10.5 19.5C10.5 19.8978 10.658 20.2794 10.9393 20.5607C11.2206 20.842 11.6022 21 12 21H21C21.3978 21 21.7794 20.842 22.0607 20.5607C22.342 20.2794 22.5 19.8978 22.5 19.5C22.5 19.1022 22.342 18.7206 22.0607 18.4393C21.7794 18.158 21.3978 18 21 18ZM24 12H12C11.6022 12 11.2206 12.158 10.9393 12.4393C10.658 12.7206 10.5 13.1022 10.5 13.5C10.5 13.8978 10.658 14.2794 10.9393 14.5607C11.2206 14.842 11.6022 15 12 15H24C24.3978 15 24.7794 14.842 25.0607 14.5607C25.342 14.2794 25.5 13.8978 25.5 13.5C25.5 13.1022 25.342 12.7206 25.0607 12.4393C24.7794 12.158 24.3978 12 24 12Z" fill="#293A92"/>
</svg>
