<svg width="36" height="36" viewBox="0 0 36 36" fill="none" xmlns="http://www.w3.org/2000/svg">
<path fill-rule="evenodd" clip-rule="evenodd" d="M11.47 2.00036C11.1907 2.00727 10.9252 2.12635 10.7305 2.33202C10.5358 2.5377 10.4274 2.81357 10.4286 3.10039V15.7893C9.61157 15.305 8.66176 15.111 7.72644 15.2374C6.79112 15.3638 5.92255 15.8035 5.25543 16.4883C4.58832 17.1732 4.15993 18.0649 4.03672 19.0252C3.9135 19.9855 4.10234 20.9606 4.57394 21.7995C5.04555 22.6384 5.77356 23.294 6.64509 23.6648C7.51662 24.0356 8.48296 24.1008 9.39424 23.8503C10.3055 23.5997 11.1108 23.0475 11.6853 22.2792C12.2597 21.5109 12.5712 20.5694 12.5714 19.6009V8.79856L17.7529 9.68518C17.9063 9.71137 18.0634 9.70295 18.2133 9.66051C18.3633 9.61806 18.5024 9.54262 18.6211 9.43941C18.7398 9.3362 18.8351 9.2077 18.9006 9.06284C18.966 8.91798 18.9999 8.76023 19 8.60055V4.20042C18.9999 3.94004 18.9098 3.68814 18.7458 3.48954C18.5818 3.29093 18.3545 3.1585 18.1043 3.11579L11.6961 2.01906C11.6216 2.00463 11.5458 1.99837 11.47 2.00036Z" fill="#C8CDE2"/>
<path fill-rule="evenodd" clip-rule="evenodd" d="M22.458 4.00049C22.067 4.00991 21.6953 4.17229 21.4227 4.45275C21.1501 4.73321 20.9983 5.10938 21 5.50049V22.803C19.8562 22.1426 18.5265 21.8781 17.217 22.0505C15.9076 22.2228 14.6916 22.8224 13.7576 23.7563C12.8236 24.6901 12.2239 25.9061 12.0514 27.2155C11.8789 28.5249 12.1433 29.8547 12.8035 30.9986C13.4638 32.1424 14.483 33.0365 15.7031 33.5421C16.9233 34.0477 18.2761 34.1366 19.5519 33.795C20.8277 33.4533 21.9552 32.7003 22.7594 31.6526C23.5636 30.605 23.9997 29.3212 24 28.0005V13.2705L31.254 14.4795C31.4688 14.5152 31.6888 14.5037 31.8987 14.4458C32.1086 14.388 32.3034 14.2851 32.4695 14.1444C32.6357 14.0036 32.7692 13.8284 32.8608 13.6309C32.9524 13.4333 32.9999 13.2182 33 13.0005V7.00049C32.9998 6.64543 32.8737 6.30194 32.6441 6.03113C32.4145 5.76031 32.0963 5.57972 31.746 5.52149L22.7745 4.02599C22.6702 4.00632 22.5641 3.99777 22.458 4.00049Z" fill="#293A92"/>
</svg>
