<svg width="30" height="30" viewBox="0 0 30 30" fill="none" xmlns="http://www.w3.org/2000/svg">
<path d="M15.5 17.7754C16.9728 17.7754 19.2342 18.1521 21.1045 18.9014C22.0388 19.2757 22.8195 19.7208 23.3516 20.2119C23.8773 20.6973 24.0996 21.166 24.0996 21.625V22.8125C24.0996 22.9686 23.9686 23.0996 23.8125 23.0996H7.1875C7.03143 23.0996 6.90039 22.9686 6.90039 22.8125V21.625C6.90039 21.166 7.12268 20.6973 7.64844 20.2119C8.18055 19.7208 8.96124 19.2757 9.89551 18.9014C11.7658 18.1521 14.0272 17.7754 15.5 17.7754ZM15.5 5.90039C17.6273 5.90039 19.3496 7.62268 19.3496 9.75C19.3496 11.8773 17.6273 13.5996 15.5 13.5996C13.3727 13.5996 11.6504 11.8773 11.6504 9.75C11.6504 7.62268 13.3727 5.90039 15.5 5.90039Z" stroke="#1A1A1A" stroke-width="1.8"/>
</svg>
