<svg width="30" height="30" viewBox="0 0 30 30" fill="none" xmlns="http://www.w3.org/2000/svg">
<path d="M15 23C12.7667 23 10.875 22.225 9.325 20.675C7.775 19.125 7 17.2333 7 15C7 12.7667 7.775 10.875 9.325 9.325C10.875 7.775 12.7667 7 15 7C16.15 7 17.25 7.23734 18.3 7.712C19.35 8.18667 20.25 8.866 21 9.75V8C21 7.71667 21.096 7.47934 21.288 7.288C21.48 7.09667 21.7173 7.00067 22 7C22.2827 6.99934 22.5203 7.09534 22.713 7.288C22.9057 7.48067 23.0013 7.718 23 8V13C23 13.2833 22.904 13.521 22.712 13.713C22.52 13.905 22.2827 14.0007 22 14H17C16.7167 14 16.4793 13.904 16.288 13.712C16.0967 13.52 16.0007 13.2827 16 13C15.9993 12.7173 16.0953 12.48 16.288 12.288C16.4807 12.096 16.718 12 17 12H20.2C19.6667 11.0667 18.9377 10.3333 18.013 9.8C17.0883 9.26667 16.084 9 15 9C13.3333 9 11.9167 9.58334 10.75 10.75C9.58333 11.9167 9 13.3333 9 15C9 16.6667 9.58333 18.0833 10.75 19.25C11.9167 20.4167 13.3333 21 15 21C16.1333 21 17.171 20.7127 18.113 20.138C19.055 19.5633 19.784 18.7923 20.3 17.825C20.4333 17.5917 20.621 17.4293 20.863 17.338C21.105 17.2467 21.3507 17.2423 21.6 17.325C21.8667 17.4083 22.0583 17.5833 22.175 17.85C22.2917 18.1167 22.2833 18.3667 22.15 18.6C21.4667 19.9333 20.4917 21 19.225 21.8C17.9583 22.6 16.55 23 15 23Z" fill="#1A1A1A"/>
</svg>
