<svg width="65" height="28" viewBox="0 0 65 28" fill="none" xmlns="http://www.w3.org/2000/svg">
<rect x="0.5" y="0.5" width="64" height="27" rx="13.5" fill="white"/>
<rect x="0.5" y="0.5" width="64" height="27" rx="13.5" stroke="#D9D9D9"/>
<path d="M22.8545 13.9727V15.1279H12.3809V13.9727H22.8545ZM21.6484 11.9414V13.0713H13.6631V9.02148H21.585V10.1641H15.0723V11.9414H21.6484ZM17.5986 15.9277C20.0742 15.915 21.5596 16.6768 21.5723 18.0098C21.5596 19.3555 20.0742 20.1172 17.5986 20.1172C15.0977 20.1172 13.5996 19.3555 13.5996 18.0098C13.5996 16.6768 15.0977 15.915 17.5986 15.9277ZM17.5986 17.0068C15.9229 17.0068 15.0215 17.3623 15.0342 18.0098C15.0215 18.6826 15.9229 19.0254 17.5986 19.0254C19.2363 19.0254 20.1504 18.6826 20.1631 18.0098C20.1504 17.3623 19.2363 17.0068 17.5986 17.0068ZM34.0898 14.8613V16.0039H23.6035V14.8613H28.1484V13.9092H24.9365V10.8623H31.3857V10.0117H24.8984V8.90723H32.7949V11.8906H26.333V12.8047H33.0234V13.9092H29.5449V14.8613H34.0898ZM32.8584 16.7275V20.0537H31.4365V17.8447H24.7715V16.7275H32.8584Z" fill="#4C4C4C"/>
<path d="M49.6665 11.3335L43.8332 17.3335L40.3332 13.4764" stroke="#BFBFBF" stroke-width="1.5"/>
</svg>
