<svg width="30" height="30" viewBox="0 0 30 30" fill="none" xmlns="http://www.w3.org/2000/svg">
<path d="M23.7473 22.4825L20.4102 19.17C21.7056 17.5537 22.3329 15.5021 22.1631 13.4372C21.9934 11.3723 21.0396 9.45088 19.4978 8.06813C17.9559 6.68538 15.9433 5.94636 13.8738 6.00303C11.8042 6.05971 9.83498 6.90777 8.37103 8.37283C6.90708 9.83789 6.05966 11.8086 6.00303 13.8797C5.9464 15.9509 6.68486 17.965 8.06656 19.508C9.44826 21.051 11.3682 22.0056 13.4316 22.1754C15.4949 22.3453 17.5449 21.7175 19.16 20.4212L22.47 23.7337C22.5536 23.8181 22.6531 23.8851 22.7627 23.9308C22.8723 23.9765 22.9899 24 23.1086 24C23.2274 24 23.3449 23.9765 23.4546 23.9308C23.5642 23.8851 23.6636 23.8181 23.7473 23.7337C23.9094 23.5659 24 23.3416 24 23.1081C24 22.8747 23.9094 22.6504 23.7473 22.4825ZM14.114 20.4212C12.8687 20.4212 11.6514 20.0516 10.616 19.3593C9.58056 18.6669 8.77355 17.6828 8.297 16.5315C7.82045 15.3801 7.69577 14.1132 7.93871 12.8909C8.18165 11.6686 8.78131 10.5459 9.66186 9.66464C10.5424 8.78343 11.6643 8.18331 12.8856 7.94018C14.107 7.69706 15.373 7.82184 16.5235 8.29875C17.674 8.77566 18.6573 9.58328 19.3491 10.6195C20.041 11.6557 20.4102 12.8739 20.4102 14.1202C20.4102 15.7913 19.7469 17.394 18.5661 18.5757C17.3853 19.7573 15.7839 20.4212 14.114 20.4212Z" fill="#1A1A1A"/>
</svg>
