<svg width="24" height="24" viewBox="0 0 24 24" fill="none" xmlns="http://www.w3.org/2000/svg">
  <path d="M18 8C19.66 8 21 6.66 21 5C21 3.34 19.66 2 18 2C16.34 2 15 3.34 15 5C15 5.18 15.02 5.36 15.05 5.53L8.91 9.2C8.09 8.46 7.06 8 6 8C3.79 8 2 9.79 2 12C2 14.21 3.79 16 6 16C7.06 16 8.09 15.54 8.91 14.8L15.05 18.47C15.02 18.64 15 18.82 15 19C15 20.66 16.34 22 18 22C19.66 22 21 20.66 21 19C21 17.34 19.66 16 18 16C16.94 16 15.91 16.46 15.09 17.2L8.95 13.53C8.98 13.36 9 13.18 9 13C9 12.82 8.98 12.64 8.95 12.47L15.09 8.8C15.91 9.54 16.94 10 18 10Z" fill="#4C4C4C"/>
</svg>
