<svg width="23" height="23" viewBox="0 0 23 23" fill="none" xmlns="http://www.w3.org/2000/svg">
<path d="M4.01424 18.732L4.53984 15.1325C4.57188 14.8973 4.67925 14.6785 4.84724 14.5098L15.0311 4.32471C15.1629 4.19115 15.327 4.09382 15.5075 4.04216C15.688 3.9905 15.8788 3.98624 16.0615 4.0298C16.9964 4.28792 17.8438 4.7942 18.5137 5.49483C19.2133 6.16849 19.7167 7.01917 19.9702 7.95614C20.0138 8.13856 20.0095 8.32914 19.9578 8.50943C19.9061 8.68972 19.8086 8.85363 19.6749 8.98529L9.47979 19.1574C9.3107 19.3248 9.09145 19.4323 8.85548 19.4636L5.25248 19.9886C5.08228 20.0133 4.90862 19.9977 4.7456 19.943C4.58257 19.8882 4.43476 19.7958 4.31416 19.6734C4.19355 19.5509 4.10355 19.4017 4.05144 19.238C3.99933 19.0743 3.98659 18.9006 4.01424 18.7311M13.1044 6.26194L17.7483 10.9" stroke="white" stroke-width="1.8" stroke-linecap="round" stroke-linejoin="round"/>
</svg>
