<svg width="30" height="30" viewBox="0 0 30 30" fill="none" xmlns="http://www.w3.org/2000/svg">
<path d="M7.01424 21.732L7.53984 18.1325C7.57188 17.8973 7.67925 17.6785 7.84724 17.5098L18.0311 7.32471C18.1629 7.19115 18.327 7.09382 18.5075 7.04216C18.688 6.9905 18.8788 6.98624 19.0615 7.0298C19.9964 7.28792 20.8438 7.7942 21.5137 8.49483C22.2133 9.16849 22.7167 10.0192 22.9702 10.9561C23.0138 11.1386 23.0095 11.3291 22.9578 11.5094C22.9061 11.6897 22.8086 11.8536 22.6749 11.9853L12.4798 22.1574C12.3107 22.3248 12.0915 22.4323 11.8555 22.4636L8.25248 22.9886C8.08228 23.0133 7.90862 22.9977 7.7456 22.943C7.58257 22.8882 7.43476 22.7958 7.31416 22.6734C7.19355 22.5509 7.10355 22.4017 7.05144 22.238C6.99933 22.0743 6.98659 21.9006 7.01424 21.7311M16.1044 9.26194L20.7483 13.9" stroke="#1A1A1A" stroke-width="1.8" stroke-linecap="round" stroke-linejoin="round"/>
</svg>
